<mxfile host="app.diagrams.net" modified="2024-01-19T03:31:28.838Z" agent="Mozilla/5.0 (Windows NT 10.0; Win64; x64) AppleWebKit/537.36 (KHTML, like Gecko) Chrome/120.0.0.0 Safari/537.36" etag="h6vveAA4-uJGKdmYIj77" version="22.1.21" type="github">
  <diagram id="C5RBs43oDa-KdzZeNtuy" name="Page-1">
    <mxGraphModel dx="1195" dy="655" grid="1" gridSize="10" guides="1" tooltips="1" connect="1" arrows="1" fold="1" page="1" pageScale="1" pageWidth="827" pageHeight="1169" math="0" shadow="0">
      <root>
        <mxCell id="WIyWlLk6GJQsqaUBKTNV-0" />
        <mxCell id="WIyWlLk6GJQsqaUBKTNV-1" parent="WIyWlLk6GJQsqaUBKTNV-0" />
        <mxCell id="hS7xhN4uPLK14x-_Nlo9-2" value="" style="rounded=0;whiteSpace=wrap;html=1;" vertex="1" parent="WIyWlLk6GJQsqaUBKTNV-1">
          <mxGeometry x="214" y="90" width="390" height="320" as="geometry" />
        </mxCell>
        <mxCell id="hS7xhN4uPLK14x-_Nlo9-22" value="" style="rounded=0;whiteSpace=wrap;html=1;" vertex="1" parent="WIyWlLk6GJQsqaUBKTNV-1">
          <mxGeometry x="234" y="120" width="350" height="279" as="geometry" />
        </mxCell>
        <mxCell id="hS7xhN4uPLK14x-_Nlo9-20" value="" style="rounded=0;whiteSpace=wrap;html=1;" vertex="1" parent="WIyWlLk6GJQsqaUBKTNV-1">
          <mxGeometry x="243" y="159.5" width="330" height="210" as="geometry" />
        </mxCell>
        <mxCell id="hS7xhN4uPLK14x-_Nlo9-0" value="FrontEnd" style="rounded=0;whiteSpace=wrap;html=1;" vertex="1" parent="WIyWlLk6GJQsqaUBKTNV-1">
          <mxGeometry x="54" y="170" width="110" height="30" as="geometry" />
        </mxCell>
        <mxCell id="hS7xhN4uPLK14x-_Nlo9-6" style="edgeStyle=orthogonalEdgeStyle;rounded=0;orthogonalLoop=1;jettySize=auto;html=1;exitX=1;exitY=0.5;exitDx=0;exitDy=0;entryX=0;entryY=0.5;entryDx=0;entryDy=0;" edge="1" parent="WIyWlLk6GJQsqaUBKTNV-1" source="hS7xhN4uPLK14x-_Nlo9-1" target="hS7xhN4uPLK14x-_Nlo9-2">
          <mxGeometry relative="1" as="geometry" />
        </mxCell>
        <mxCell id="hS7xhN4uPLK14x-_Nlo9-1" value="Serviços Externos" style="rounded=0;whiteSpace=wrap;html=1;" vertex="1" parent="WIyWlLk6GJQsqaUBKTNV-1">
          <mxGeometry x="54" y="235" width="110" height="30" as="geometry" />
        </mxCell>
        <mxCell id="hS7xhN4uPLK14x-_Nlo9-3" value="AWS EC2" style="text;strokeColor=none;fillColor=none;html=1;fontSize=24;fontStyle=1;verticalAlign=middle;align=center;" vertex="1" parent="WIyWlLk6GJQsqaUBKTNV-1">
          <mxGeometry x="214" y="50" width="120" height="40" as="geometry" />
        </mxCell>
        <mxCell id="hS7xhN4uPLK14x-_Nlo9-5" style="edgeStyle=orthogonalEdgeStyle;rounded=0;orthogonalLoop=1;jettySize=auto;html=1;exitX=1;exitY=0.5;exitDx=0;exitDy=0;entryX=0.003;entryY=0.298;entryDx=0;entryDy=0;entryPerimeter=0;" edge="1" parent="WIyWlLk6GJQsqaUBKTNV-1" source="hS7xhN4uPLK14x-_Nlo9-0" target="hS7xhN4uPLK14x-_Nlo9-2">
          <mxGeometry relative="1" as="geometry" />
        </mxCell>
        <mxCell id="hS7xhN4uPLK14x-_Nlo9-11" style="edgeStyle=orthogonalEdgeStyle;rounded=0;orthogonalLoop=1;jettySize=auto;html=1;entryX=0;entryY=0.5;entryDx=0;entryDy=0;" edge="1" parent="WIyWlLk6GJQsqaUBKTNV-1" source="hS7xhN4uPLK14x-_Nlo9-7" target="hS7xhN4uPLK14x-_Nlo9-8">
          <mxGeometry relative="1" as="geometry" />
        </mxCell>
        <mxCell id="hS7xhN4uPLK14x-_Nlo9-7" value="Controllers" style="rounded=0;whiteSpace=wrap;html=1;" vertex="1" parent="WIyWlLk6GJQsqaUBKTNV-1">
          <mxGeometry x="264" y="170" width="90" height="30" as="geometry" />
        </mxCell>
        <mxCell id="hS7xhN4uPLK14x-_Nlo9-12" style="edgeStyle=orthogonalEdgeStyle;rounded=0;orthogonalLoop=1;jettySize=auto;html=1;" edge="1" parent="WIyWlLk6GJQsqaUBKTNV-1" source="hS7xhN4uPLK14x-_Nlo9-8" target="hS7xhN4uPLK14x-_Nlo9-9">
          <mxGeometry relative="1" as="geometry" />
        </mxCell>
        <mxCell id="hS7xhN4uPLK14x-_Nlo9-13" style="edgeStyle=orthogonalEdgeStyle;rounded=0;orthogonalLoop=1;jettySize=auto;html=1;" edge="1" parent="WIyWlLk6GJQsqaUBKTNV-1" source="hS7xhN4uPLK14x-_Nlo9-8" target="hS7xhN4uPLK14x-_Nlo9-10">
          <mxGeometry relative="1" as="geometry" />
        </mxCell>
        <mxCell id="hS7xhN4uPLK14x-_Nlo9-8" value="Services" style="rounded=0;whiteSpace=wrap;html=1;" vertex="1" parent="WIyWlLk6GJQsqaUBKTNV-1">
          <mxGeometry x="408" y="170" width="90" height="30" as="geometry" />
        </mxCell>
        <mxCell id="hS7xhN4uPLK14x-_Nlo9-19" style="edgeStyle=orthogonalEdgeStyle;rounded=0;orthogonalLoop=1;jettySize=auto;html=1;entryX=0.5;entryY=0;entryDx=0;entryDy=0;" edge="1" parent="WIyWlLk6GJQsqaUBKTNV-1" source="hS7xhN4uPLK14x-_Nlo9-9" target="hS7xhN4uPLK14x-_Nlo9-17">
          <mxGeometry relative="1" as="geometry" />
        </mxCell>
        <mxCell id="hS7xhN4uPLK14x-_Nlo9-9" value="Repositories" style="rounded=0;whiteSpace=wrap;html=1;" vertex="1" parent="WIyWlLk6GJQsqaUBKTNV-1">
          <mxGeometry x="344" y="271.25" width="90" height="40" as="geometry" />
        </mxCell>
        <mxCell id="hS7xhN4uPLK14x-_Nlo9-14" style="edgeStyle=orthogonalEdgeStyle;rounded=0;orthogonalLoop=1;jettySize=auto;html=1;exitX=1;exitY=0.5;exitDx=0;exitDy=0;" edge="1" parent="WIyWlLk6GJQsqaUBKTNV-1" source="hS7xhN4uPLK14x-_Nlo9-10" target="hS7xhN4uPLK14x-_Nlo9-15">
          <mxGeometry relative="1" as="geometry">
            <mxPoint x="633.9999999999998" y="245.24137931034488" as="targetPoint" />
          </mxGeometry>
        </mxCell>
        <mxCell id="hS7xhN4uPLK14x-_Nlo9-10" value="Notificação (Web Flux) ou Apache Camel" style="rounded=0;whiteSpace=wrap;html=1;" vertex="1" parent="WIyWlLk6GJQsqaUBKTNV-1">
          <mxGeometry x="459" y="266.25" width="90" height="50" as="geometry" />
        </mxCell>
        <mxCell id="hS7xhN4uPLK14x-_Nlo9-15" value="service de notificação" style="rounded=0;whiteSpace=wrap;html=1;" vertex="1" parent="WIyWlLk6GJQsqaUBKTNV-1">
          <mxGeometry x="664" y="273.75" width="110" height="42.5" as="geometry" />
        </mxCell>
        <mxCell id="hS7xhN4uPLK14x-_Nlo9-17" value="Banco Postgres" style="rounded=1;whiteSpace=wrap;html=1;" vertex="1" parent="WIyWlLk6GJQsqaUBKTNV-1">
          <mxGeometry x="329" y="500" width="120" height="60" as="geometry" />
        </mxCell>
        <mxCell id="hS7xhN4uPLK14x-_Nlo9-18" value="&lt;font style=&quot;font-size: 13px;&quot;&gt;AWS RDS&lt;/font&gt;" style="text;strokeColor=none;fillColor=none;html=1;fontSize=24;fontStyle=1;verticalAlign=middle;align=center;" vertex="1" parent="WIyWlLk6GJQsqaUBKTNV-1">
          <mxGeometry x="244" y="505" width="90" height="50" as="geometry" />
        </mxCell>
        <mxCell id="hS7xhN4uPLK14x-_Nlo9-21" value="&lt;font style=&quot;font-size: 13px;&quot;&gt;SpringBoot&lt;/font&gt;" style="text;strokeColor=none;fillColor=none;html=1;fontSize=24;fontStyle=1;verticalAlign=middle;align=center;" vertex="1" parent="WIyWlLk6GJQsqaUBKTNV-1">
          <mxGeometry x="234" y="120" width="90" height="50" as="geometry" />
        </mxCell>
        <mxCell id="hS7xhN4uPLK14x-_Nlo9-23" value="&lt;font style=&quot;font-size: 13px;&quot;&gt;Docker&lt;/font&gt;" style="text;strokeColor=none;fillColor=none;html=1;fontSize=24;fontStyle=1;verticalAlign=middle;align=center;" vertex="1" parent="WIyWlLk6GJQsqaUBKTNV-1">
          <mxGeometry x="209" y="80" width="90" height="50" as="geometry" />
        </mxCell>
        <mxCell id="hS7xhN4uPLK14x-_Nlo9-25" value="AWS VPC" style="rounded=1;whiteSpace=wrap;html=1;" vertex="1" parent="WIyWlLk6GJQsqaUBKTNV-1">
          <mxGeometry x="236.5" y="430" width="85" height="40" as="geometry" />
        </mxCell>
        <mxCell id="hS7xhN4uPLK14x-_Nlo9-26" value="Security Groups" style="rounded=1;whiteSpace=wrap;html=1;" vertex="1" parent="WIyWlLk6GJQsqaUBKTNV-1">
          <mxGeometry x="434" y="430" width="85" height="40" as="geometry" />
        </mxCell>
        <mxCell id="hS7xhN4uPLK14x-_Nlo9-27" value="" style="endArrow=none;html=1;rounded=0;entryX=0.013;entryY=0.482;entryDx=0;entryDy=0;entryPerimeter=0;" edge="1" parent="WIyWlLk6GJQsqaUBKTNV-1" target="hS7xhN4uPLK14x-_Nlo9-26">
          <mxGeometry width="50" height="50" relative="1" as="geometry">
            <mxPoint x="321.5" y="449" as="sourcePoint" />
            <mxPoint x="384" y="450" as="targetPoint" />
          </mxGeometry>
        </mxCell>
      </root>
    </mxGraphModel>
  </diagram>
</mxfile>
